<svg width="420" height="220" viewBox="0 0 420 220" fill="none" xmlns="http://www.w3.org/2000/svg">
<path d="M10 35C10 21.1929 21.1929 10 35 10H146.542C149.952 10 153.136 11.7043 155.028 14.5416V14.5416C163.102 26.6527 180.898 26.6527 188.972 14.5416V14.5416C190.864 11.7043 194.048 10 197.458 10H385C398.807 10 410 21.1929 410 35V185C410 198.807 398.807 210 385 210H197.458C194.048 210 190.864 208.296 188.972 205.458V205.458C180.898 193.347 163.102 193.347 155.028 205.458V205.458C153.136 208.296 149.952 210 146.542 210H35C21.1929 210 10 198.807 10 185V35Z" fill="#FEF3CE" stroke="#FFBD8E" stroke-width="10"/>
<line x1="172" y1="28" x2="172" y2="192" stroke="#FFBD8E" stroke-width="10" stroke-dasharray="20 20"/>
<path fill-rule="evenodd" clip-rule="evenodd" d="M127.693 64.75C132.283 64.75 136 68.4715 136 73.057V82.75C136 91.1266 133.404 99.2974 128.568 106.138C123.733 112.978 116.897 118.151 109 120.946V125.5C109 127.29 108.289 129.007 107.023 130.273C105.757 131.539 104.04 132.25 102.25 132.25H79.75C77.9598 132.25 76.2429 131.539 74.977 130.273C73.7112 129.007 73 127.29 73 125.5V120.946C65.1033 118.151 58.2669 112.978 53.4317 106.138C48.5964 99.2974 46.0001 91.1266 46 82.75V73.057C46 68.467 49.7215 64.75 54.307 64.75H127.693ZM127 82.75V73.75H55V82.75C55 91.1043 58.3187 99.1165 64.2261 105.024C70.1335 110.931 73.6457 114.25 82 114.25V123.25H100V114.25C108.354 114.25 111.866 110.931 117.774 105.024C123.681 99.1165 127 91.1043 127 82.75Z" fill="#717171"/>
<rect x="51" y="137.25" width="80" height="6" rx="3" fill="#717171"/>
<rect x="51" y="145.25" width="80" height="6" rx="3" fill="#717171"/>
<g clip-path="url(#clip0_2_54)">
<g clip-path="url(#clip1_2_54)">
<rect x="211" y="73" width="120" height="10" rx="5" fill="#A1A1A1"/>
<rect x="341" y="73" width="30" height="10" rx="5" fill="#A1A1A1"/>
</g>
<g clip-path="url(#clip2_2_54)">
<rect x="211" y="93" width="100" height="10" rx="5" fill="#A1A1A1"/>
<rect x="341" y="93" width="30" height="10" rx="5" fill="#A1A1A1"/>
</g>
<g clip-path="url(#clip3_2_54)">
<rect x="211" y="113" width="114" height="10" rx="5" fill="#A1A1A1"/>
<rect x="341" y="113" width="30" height="10" rx="5" fill="#A1A1A1"/>
</g>
<g clip-path="url(#clip4_2_54)">
<rect x="211" y="133" width="85" height="10" rx="5" fill="#A1A1A1"/>
<rect x="341" y="133" width="30" height="10" rx="5" fill="#A1A1A1"/>
</g>
</g>
<defs>
<clipPath id="clip0_2_54">
<rect width="160" height="70" fill="white" transform="translate(211 73)"/>
</clipPath>
<clipPath id="clip1_2_54">
<rect width="160" height="10" fill="white" transform="translate(211 73)"/>
</clipPath>
<clipPath id="clip2_2_54">
<rect width="160" height="10" fill="white" transform="translate(211 93)"/>
</clipPath>
<clipPath id="clip3_2_54">
<rect width="160" height="10" fill="white" transform="translate(211 113)"/>
</clipPath>
<clipPath id="clip4_2_54">
<rect width="160" height="10" fill="white" transform="translate(211 133)"/>
</clipPath>
</defs>
</svg>
