<svg width="395" height="91" viewBox="0 0 395 91" fill="none" xmlns="http://www.w3.org/2000/svg">
<g clip-path="url(#clip0_2_52)">
<path d="M40.2033 50.548C40.4433 51.22 40.6113 51.988 40.7073 52.852C40.8513 53.668 40.9233 54.508 40.9233 55.372C40.9233 56.236 40.8513 57.1 40.7073 57.964C40.6113 58.78 40.4673 59.5 40.2753 60.124C39.5073 62.812 37.9713 65.068 35.6673 66.892C33.3633 68.668 30.7233 69.964 27.7473 70.78C24.8193 71.596 21.7713 71.884 18.6033 71.644C15.4833 71.404 12.6993 70.612 10.2513 69.268C8.71534 68.404 7.39534 67.348 6.29134 66.1C5.18734 64.852 4.25134 63.46 3.48334 61.924C3.19534 61.396 3.00334 60.796 2.90734 60.124C2.85934 59.404 2.93134 58.732 3.12334 58.108C3.31534 57.436 3.62734 56.86 4.05934 56.38C4.49134 55.852 5.09134 55.492 5.85934 55.3C6.33934 55.204 6.86734 55.156 7.44334 55.156C8.06734 55.156 8.66734 55.252 9.24334 55.444C9.81934 55.588 10.3473 55.852 10.8273 56.236C11.3073 56.572 11.6913 57.052 11.9793 57.676C12.5073 58.684 13.2513 59.62 14.2113 60.484C15.2193 61.3 16.2753 61.972 17.3793 62.5C18.9633 63.028 20.5473 63.244 22.1313 63.148C23.7633 63.052 25.2273 62.692 26.5233 62.068C27.8673 61.444 28.9473 60.604 29.7633 59.548C30.5793 58.444 30.9873 57.196 30.9873 55.804C30.9873 54.652 30.8193 53.716 30.4833 52.996C30.1473 52.228 29.6673 51.604 29.0433 51.124C28.4673 50.596 27.7473 50.164 26.8833 49.828C26.0673 49.492 25.1553 49.204 24.1473 48.964C22.9953 48.724 21.8193 48.556 20.6193 48.46C19.4673 48.364 18.2913 48.244 17.0913 48.1C15.8913 47.956 14.7153 47.764 13.5633 47.524C12.4113 47.284 11.2833 46.924 10.1793 46.444C7.97134 45.532 6.29134 44.14 5.13934 42.268C3.98734 40.396 3.29134 38.38 3.05134 36.22C2.85934 34.06 3.12334 31.924 3.84334 29.812C4.56334 27.652 5.71534 25.804 7.29934 24.268C8.83534 22.876 10.6593 21.892 12.7713 21.316C14.9313 20.692 17.3073 20.332 19.8993 20.236C21.3393 20.188 22.7793 20.236 24.2193 20.38C25.7073 20.524 27.1233 20.764 28.4673 21.1C29.8593 21.436 31.1313 21.868 32.2833 22.396C33.4833 22.924 34.5153 23.548 35.3793 24.268C36.0033 24.748 36.6273 25.396 37.2513 26.212C37.8753 26.98 38.3553 27.82 38.6913 28.732C39.0273 29.596 39.1233 30.436 38.9793 31.252C38.8833 32.068 38.3793 32.764 37.4673 33.34C36.6993 33.82 35.9553 34.036 35.2353 33.988C34.5633 33.892 33.9153 33.676 33.2913 33.34C32.6673 32.956 32.0673 32.524 31.4913 32.044C30.9153 31.564 30.3873 31.132 29.9073 30.748C28.6113 29.788 27.0033 29.14 25.0833 28.804C23.1633 28.468 21.3633 28.396 19.6833 28.588C18.6273 28.732 17.6433 28.972 16.7313 29.308C15.8193 29.644 15.0273 30.1 14.3553 30.676C13.7313 31.252 13.2273 31.972 12.8433 32.836C12.5073 33.652 12.3873 34.588 12.4833 35.644C12.5313 36.412 12.7473 37.06 13.1313 37.588C13.5633 38.116 14.0673 38.548 14.6433 38.884C15.2673 39.22 15.9393 39.484 16.6593 39.676C17.3793 39.868 18.0993 40.012 18.8193 40.108C20.9793 40.396 23.1393 40.612 25.2993 40.756C27.4593 40.9 29.5713 41.38 31.6353 42.196C33.7473 43.012 35.5473 44.116 37.0353 45.508C38.5233 46.9 39.5793 48.58 40.2033 50.548ZM84.728 24.052C84.776 24.388 84.8 24.7 84.8 24.988C84.8 25.276 84.8 25.564 84.8 25.852V28.804L84.368 66.172V66.892C84.368 67.18 84.296 67.612 84.152 68.188C84.104 68.428 84.032 68.692 83.936 68.98C83.84 69.22 83.744 69.484 83.648 69.772C83.408 70.348 83.072 70.78 82.64 71.068C82.256 71.452 81.632 71.716 80.768 71.86C79.424 72.148 78.2 72.028 77.096 71.5C76.472 71.116 76.04 70.636 75.8 70.06C75.704 69.964 75.608 69.82 75.512 69.628C75.512 69.532 75.464 69.388 75.368 69.196C75.272 68.956 75.2 68.716 75.152 68.476C75.104 68.188 75.056 67.9 75.008 67.612C75.008 67.372 74.984 67.132 74.936 66.892C74.936 66.652 74.912 66.412 74.864 66.172C74.768 65.932 74.72 65.74 74.72 65.596C74.72 65.404 74.72 65.188 74.72 64.948C74.816 64.756 74.864 64.396 74.864 63.868L74.936 58.18L75.008 49.108H71.12L56.504 49.18L56.36 66.172V66.892C56.36 67.18 56.288 67.612 56.144 68.188C56.096 68.428 56.024 68.692 55.928 68.98C55.832 69.22 55.736 69.484 55.64 69.772C55.4 70.348 55.064 70.78 54.632 71.068C54.248 71.452 53.624 71.716 52.76 71.86C51.416 72.148 50.192 72.028 49.088 71.5C48.608 71.212 48.152 70.732 47.72 70.06C47.624 69.868 47.576 69.724 47.576 69.628L47.36 69.196C47.264 68.956 47.192 68.716 47.144 68.476C47.096 68.188 47.048 67.9 47 67.612C47 67.372 46.976 67.132 46.928 66.892C46.88 66.652 46.832 66.412 46.784 66.172C46.736 65.788 46.736 65.38 46.784 64.948V63.868L46.856 58.18L47 47.596C47.048 46.06 47.072 44.476 47.072 42.844C47.072 41.212 47.072 39.532 47.072 37.804C47.024 36.076 47 34.54 47 33.196C47.048 31.852 47.12 30.34 47.216 28.66V28.372C47.264 27.892 47.288 27.412 47.288 26.932C47.288 26.404 47.312 25.876 47.36 25.348C47.408 24.868 47.48 24.412 47.576 23.98C47.72 23.5 47.912 23.02 48.152 22.54C48.296 22.156 48.488 21.844 48.728 21.604C48.968 21.316 49.256 21.052 49.592 20.812C50.36 20.428 51.128 20.236 51.896 20.236C52.28 20.236 52.616 20.26 52.904 20.308C53.192 20.308 53.48 20.332 53.768 20.38C54.344 20.428 54.896 20.716 55.424 21.244C55.808 21.58 56.072 21.964 56.216 22.396C56.456 23.02 56.6 23.572 56.648 24.052C56.696 24.388 56.72 24.7 56.72 24.988C56.72 25.276 56.72 25.564 56.72 25.852V28.804L56.576 40.684C56.96 40.684 57.392 40.684 57.872 40.684C58.4 40.684 59 40.66 59.672 40.612C62.168 40.612 64.64 40.636 67.088 40.684C69.584 40.732 72.2 40.756 74.936 40.756H75.008C75.008 38.596 75.008 36.532 75.008 34.564C75.056 32.596 75.128 30.532 75.224 28.372C75.224 27.892 75.224 27.412 75.224 26.932C75.272 26.404 75.32 25.876 75.368 25.348C75.416 24.868 75.488 24.412 75.584 23.98C75.728 23.5 75.92 23.02 76.16 22.54C76.256 22.156 76.424 21.844 76.664 21.604C76.952 21.316 77.288 21.052 77.672 20.812C78.344 20.428 79.088 20.236 79.904 20.236C80.288 20.236 80.624 20.26 80.912 20.308C81.248 20.308 81.536 20.332 81.776 20.38C82.448 20.476 83 20.764 83.432 21.244C83.816 21.484 84.08 21.868 84.224 22.396C84.32 22.684 84.392 22.972 84.44 23.26C84.536 23.5 84.632 23.764 84.728 24.052ZM103.331 22.252C106.547 21.052 109.451 20.524 112.043 20.668C114.683 20.812 117.035 21.484 119.099 22.684C121.163 23.836 122.915 25.396 124.355 27.364C125.843 29.332 127.043 31.54 127.955 33.988C128.675 35.812 129.227 37.732 129.611 39.748C129.995 41.764 130.211 43.78 130.259 45.796C130.355 47.764 130.283 49.708 130.043 51.628C129.851 53.548 129.515 55.324 129.035 56.956C128.747 58.06 128.411 59.068 128.027 59.98C127.643 60.892 127.187 61.804 126.659 62.716C125.459 64.78 123.899 66.46 121.979 67.756C120.107 69.052 118.043 69.964 115.787 70.492C114.251 70.876 112.667 71.068 111.035 71.068C109.403 71.02 107.795 70.804 106.211 70.42C104.627 69.988 103.091 69.388 101.603 68.62C100.163 67.804 98.843 66.796 97.643 65.596C96.155 64.156 94.931 62.5 93.971 60.628C93.011 58.708 92.267 56.716 91.739 54.652C91.211 52.54 90.875 50.428 90.731 48.316C90.587 46.204 90.587 44.188 90.731 42.268C90.875 40.492 91.211 38.596 91.739 36.58C92.315 34.564 93.131 32.62 94.187 30.748C95.243 28.876 96.515 27.196 98.003 25.708C99.539 24.172 101.315 23.02 103.331 22.252ZM120.179 53.068C120.755 50.812 120.995 48.268 120.899 45.436C120.803 42.604 120.347 39.94 119.531 37.444C119.003 35.908 118.331 34.564 117.515 33.412C116.747 32.212 115.811 31.3 114.707 30.676C113.651 30.052 112.403 29.74 110.963 29.74C109.523 29.74 107.915 30.172 106.139 31.036C105.083 31.564 104.171 32.284 103.403 33.196C102.683 34.108 102.083 35.14 101.603 36.292C101.171 37.444 100.811 38.644 100.523 39.892C100.283 41.14 100.139 42.34 100.091 43.492C99.995 44.74 99.971 46.06 100.019 47.452C100.067 48.796 100.211 50.164 100.451 51.556C100.739 52.9 101.123 54.196 101.603 55.444C102.083 56.644 102.731 57.724 103.547 58.684C104.795 60.124 106.235 61.132 107.867 61.708C109.547 62.236 111.203 62.308 112.835 61.924C115.475 61.348 117.491 59.596 118.883 56.668C119.459 55.612 119.891 54.412 120.179 53.068ZM173.177 66.316C173.561 67.036 173.585 67.756 173.249 68.476C173.009 69.244 172.601 69.82 172.025 70.204C171.737 70.444 171.473 70.66 171.233 70.852C170.993 70.996 170.729 71.116 170.441 71.212C169.913 71.5 169.289 71.596 168.569 71.5C168.281 71.5 168.017 71.452 167.777 71.356C167.537 71.26 167.297 71.14 167.057 70.996C166.817 70.852 166.553 70.708 166.265 70.564C166.025 70.372 165.785 70.18 165.545 69.988C165.257 69.748 164.993 69.532 164.753 69.34C164.513 69.148 164.297 68.932 164.105 68.692C163.865 68.452 163.649 68.212 163.457 67.972C163.265 67.732 163.073 67.516 162.881 67.324L162.017 66.388L148.193 51.916L148.409 66.388V67.036C148.409 67.228 148.385 67.444 148.337 67.684C148.289 67.876 148.241 68.092 148.193 68.332C148.049 68.956 147.881 69.508 147.689 69.988C147.593 70.276 147.449 70.516 147.257 70.708C147.113 70.9 146.945 71.092 146.753 71.284C146.225 71.764 145.601 72.028 144.881 72.076C144.161 72.316 143.489 72.388 142.865 72.292C142.289 72.244 141.689 72.076 141.065 71.788C140.585 71.5 140.153 71.02 139.769 70.348C139.673 70.156 139.601 70.036 139.553 69.988C139.553 69.94 139.505 69.772 139.409 69.484C139.121 69.004 138.977 68.524 138.977 68.044C138.929 67.756 138.881 67.492 138.833 67.252C138.833 67.012 138.809 66.748 138.761 66.46C138.713 66.268 138.689 66.076 138.689 65.884C138.689 65.692 138.689 65.5 138.689 65.308C138.737 65.068 138.761 64.876 138.761 64.732C138.761 64.54 138.761 64.324 138.761 64.084L138.689 58.396L138.617 47.812C138.617 44.74 138.545 41.428 138.401 37.876C138.353 36.148 138.329 34.612 138.329 33.268C138.329 31.924 138.353 30.412 138.401 28.732V28.444C138.497 27.916 138.545 27.412 138.545 26.932C138.545 26.404 138.569 25.9 138.617 25.42C138.617 24.46 138.833 23.5 139.265 22.54C139.553 21.82 140.057 21.244 140.777 20.812C141.161 20.572 141.521 20.428 141.857 20.38C142.241 20.284 142.649 20.188 143.081 20.092C143.417 20.092 143.729 20.116 144.017 20.164C144.353 20.212 144.665 20.26 144.953 20.308C145.577 20.404 146.153 20.668 146.681 21.1C146.825 21.244 146.945 21.412 147.041 21.604C147.185 21.796 147.305 22.036 147.401 22.324C147.641 22.708 147.809 23.26 147.905 23.98C147.953 24.268 147.977 24.556 147.977 24.844C148.025 25.132 148.049 25.444 148.049 25.78V28.732L148.121 37.516C148.889 36.844 149.633 36.148 150.353 35.428C151.121 34.708 151.865 33.94 152.585 33.124C153.881 31.78 155.153 30.484 156.401 29.236C157.697 27.94 158.993 26.668 160.289 25.42L160.505 25.204C160.889 24.82 161.273 24.46 161.657 24.124C162.089 23.74 162.497 23.38 162.881 23.044C163.601 22.228 164.489 21.652 165.545 21.316C166.217 20.884 167.009 20.716 167.921 20.812C168.353 20.86 168.737 20.956 169.073 21.1C169.457 21.244 169.817 21.436 170.153 21.676C170.393 21.916 170.633 22.132 170.873 22.324C171.113 22.468 171.305 22.66 171.449 22.9C171.833 23.236 172.073 23.74 172.169 24.412C172.169 24.94 172.073 25.42 171.881 25.852C171.737 26.092 171.593 26.332 171.449 26.572C171.305 26.812 171.137 27.052 170.945 27.292C170.705 27.58 170.489 27.844 170.297 28.084C170.105 28.324 169.889 28.564 169.649 28.804C169.457 29.044 169.241 29.26 169.001 29.452C168.809 29.644 168.617 29.86 168.425 30.1L167.489 31.036L154.025 44.788C154.745 45.508 155.489 46.276 156.257 47.092C157.073 47.86 157.841 48.628 158.561 49.396C159.281 50.116 159.953 50.812 160.577 51.484C161.201 52.108 161.729 52.636 162.161 53.068C163.457 54.412 164.705 55.756 165.905 57.1C167.105 58.396 168.281 59.716 169.433 61.06L169.649 61.276C170.033 61.66 170.393 62.068 170.729 62.5C171.065 62.884 171.377 63.268 171.665 63.652C172.385 64.468 172.889 65.356 173.177 66.316ZM218.633 24.484C218.921 26.788 219.089 29.476 219.137 32.548C219.185 35.572 219.137 38.644 218.993 41.764C218.897 44.836 218.681 47.764 218.345 50.548C218.009 53.284 217.601 55.492 217.121 57.172C216.785 58.18 216.377 59.236 215.897 60.34C215.465 61.396 214.985 62.356 214.457 63.22C213.689 64.516 212.753 65.668 211.649 66.676C210.545 67.636 209.321 68.476 207.977 69.196C206.681 69.868 205.289 70.396 203.801 70.78C202.361 71.164 200.921 71.38 199.481 71.428C196.937 71.524 194.513 71.164 192.209 70.348C189.953 69.484 187.865 68.14 185.945 66.316C184.505 64.924 183.353 63.436 182.489 61.852C181.625 60.268 180.953 58.612 180.473 56.884C179.993 55.108 179.681 53.284 179.537 51.412C179.441 49.54 179.393 47.62 179.393 45.652C179.393 44.74 179.369 43.612 179.321 42.268C179.321 40.876 179.321 39.46 179.321 38.02C179.321 36.532 179.321 35.092 179.321 33.7C179.321 32.308 179.345 31.132 179.393 30.172C179.393 29.548 179.393 28.876 179.393 28.156C179.393 27.388 179.417 26.644 179.465 25.924C179.561 25.156 179.705 24.436 179.897 23.764C180.089 23.044 180.377 22.396 180.761 21.82C181.193 21.196 181.793 20.74 182.561 20.452C183.329 20.164 184.121 20.02 184.937 20.02C185.801 20.02 186.617 20.188 187.385 20.524C188.153 20.86 188.777 21.34 189.257 21.964C189.497 22.348 189.665 22.732 189.761 23.116C189.857 23.5 189.929 23.932 189.977 24.412C190.073 25.996 190.121 27.796 190.121 29.812C190.169 31.828 190.169 33.796 190.121 35.716C190.121 37.588 190.097 39.316 190.049 40.9C190.001 42.484 189.977 43.66 189.977 44.428C189.977 47.308 190.121 49.924 190.409 52.276C190.697 54.58 191.369 56.5 192.425 58.036C193.385 59.428 194.513 60.316 195.809 60.7C197.105 61.084 198.401 61.204 199.697 61.06C200.897 60.916 202.097 60.484 203.297 59.764C204.545 58.996 205.529 57.892 206.249 56.452C206.537 55.924 206.777 55.324 206.969 54.652C207.161 53.98 207.305 53.356 207.401 52.78C207.593 50.956 207.761 48.844 207.905 46.444C208.049 43.996 208.169 41.5 208.265 38.956C208.361 36.412 208.409 33.916 208.409 31.468C208.409 29.02 208.385 26.812 208.337 24.844C208.433 23.98 208.697 23.188 209.129 22.468C209.513 21.844 210.065 21.292 210.785 20.812C211.505 20.332 212.489 20.092 213.737 20.092C214.745 20.14 215.561 20.404 216.185 20.884C216.809 21.316 217.313 21.796 217.697 22.324C218.129 22.948 218.441 23.668 218.633 24.484ZM256.13 25.06C257.954 26.74 259.298 28.756 260.162 31.108C261.026 33.412 261.362 35.716 261.17 38.02C260.978 40.228 260.282 42.268 259.082 44.14C257.882 45.964 256.058 47.356 253.61 48.316C251.69 49.132 249.794 49.708 247.922 50.044C246.05 50.38 243.986 50.644 241.73 50.836C240.722 50.932 239.858 51.004 239.138 51.052C238.466 51.052 237.674 51.076 236.762 51.124C236.57 51.124 236.234 51.124 235.754 51.124C235.322 51.124 235.01 51.148 234.818 51.196V66.1C234.674 67.012 234.482 67.948 234.242 68.908C234.05 69.868 233.498 70.612 232.586 71.14C232.058 71.428 231.41 71.596 230.642 71.644C229.874 71.692 229.178 71.668 228.554 71.572C227.882 71.476 227.306 71.308 226.826 71.068C226.394 70.78 226.034 70.3 225.746 69.628C225.554 69.196 225.362 68.716 225.17 68.188C225.026 67.612 224.954 66.916 224.954 66.1V26.284C224.954 25.948 224.978 25.636 225.026 25.348C225.074 25.06 225.122 24.772 225.17 24.484C225.266 24.244 225.338 23.98 225.386 23.692C225.434 23.404 225.506 23.14 225.602 22.9C225.698 22.66 225.794 22.444 225.89 22.252C226.034 22.06 226.202 21.892 226.394 21.748C226.634 21.508 226.994 21.292 227.474 21.1C228.002 20.908 228.77 20.812 229.778 20.812H229.922C231.41 20.716 233.066 20.644 234.89 20.596C236.714 20.5 238.226 20.524 239.426 20.668C240.098 20.764 240.722 20.836 241.298 20.884C241.874 20.884 242.426 20.908 242.954 20.956C243.53 21.004 244.106 21.052 244.682 21.1C245.258 21.148 245.834 21.22 246.41 21.316C246.89 21.412 247.322 21.484 247.706 21.532C248.138 21.58 248.57 21.652 249.002 21.748C249.386 21.844 249.794 21.94 250.226 22.036C250.706 22.132 251.138 22.3 251.522 22.54C252.53 22.828 253.37 23.188 254.042 23.62C254.714 24.052 255.41 24.532 256.13 25.06ZM251.81 36.94C251.858 35.788 251.618 34.78 251.09 33.916C250.61 33.052 249.914 32.332 249.002 31.756C248.09 31.18 247.058 30.724 245.906 30.388C244.754 30.052 243.602 29.812 242.45 29.668C242.162 29.668 241.754 29.668 241.226 29.668C240.746 29.62 240.218 29.596 239.642 29.596C239.066 29.548 238.514 29.524 237.986 29.524C237.506 29.476 237.122 29.452 236.834 29.452C236.594 29.404 236.306 29.38 235.97 29.38C235.634 29.38 235.25 29.38 234.818 29.38C234.866 30.868 234.89 32.308 234.89 33.7C234.89 35.044 234.89 36.508 234.89 38.092C234.842 38.956 234.818 39.82 234.818 40.684C234.818 41.548 234.818 42.388 234.818 43.204L239.282 43.132C240.434 43.132 241.706 43.06 243.098 42.916C244.49 42.772 245.81 42.484 247.058 42.052C248.306 41.62 249.362 40.996 250.226 40.18C251.138 39.364 251.666 38.284 251.81 36.94ZM304.324 66.604C304.372 66.892 304.396 67.18 304.396 67.468C304.444 67.708 304.468 67.996 304.468 68.332C304.468 68.908 304.3 69.436 303.964 69.916C303.82 70.156 303.628 70.396 303.388 70.636C303.148 70.828 302.86 70.996 302.524 71.14C301.324 71.812 300.052 72.052 298.708 71.86C298.036 71.668 297.436 71.356 296.908 70.924C296.812 70.828 296.74 70.78 296.692 70.78C296.644 70.732 296.596 70.66 296.548 70.564C296.5 70.516 296.452 70.468 296.404 70.42C296.356 70.324 296.284 70.252 296.188 70.204C295.948 69.964 295.756 69.748 295.612 69.556C295.468 69.316 295.324 69.076 295.18 68.836C295.084 68.596 294.964 68.38 294.82 68.188C294.724 67.948 294.604 67.708 294.46 67.468C294.364 67.276 294.268 67.108 294.172 66.964C294.076 66.772 294.004 66.58 293.956 66.388C293.764 65.956 293.644 65.572 293.596 65.236L292.084 61.708C288.772 61.708 285.46 61.732 282.148 61.78C278.884 61.78 275.596 61.756 272.284 61.708L270.772 65.236C270.676 65.428 270.604 65.62 270.556 65.812C270.556 66.004 270.508 66.196 270.412 66.388C270.316 66.58 270.22 66.772 270.124 66.964C270.076 67.108 270.004 67.276 269.908 67.468C269.764 67.708 269.62 67.948 269.476 68.188C269.38 68.38 269.26 68.596 269.116 68.836C269.02 69.076 268.9 69.316 268.756 69.556C268.612 69.748 268.42 69.964 268.18 70.204C268.084 70.252 268.012 70.324 267.964 70.42C267.916 70.468 267.868 70.516 267.82 70.564C267.772 70.66 267.724 70.732 267.676 70.78C267.628 70.78 267.556 70.828 267.46 70.924C266.932 71.356 266.332 71.668 265.66 71.86C264.316 72.052 263.044 71.812 261.844 71.14C261.508 70.996 261.22 70.828 260.98 70.636C260.74 70.396 260.548 70.156 260.404 69.916C260.068 69.436 259.9 68.908 259.9 68.332C259.9 67.996 259.9 67.708 259.9 67.468C259.948 67.18 259.996 66.892 260.044 66.604C260.14 66.172 260.26 65.74 260.404 65.308C260.548 64.876 260.62 64.66 260.62 64.66L275.596 27.796L276.028 26.644C276.124 26.356 276.244 26.092 276.388 25.852C276.532 25.612 276.652 25.324 276.748 24.988C276.988 24.364 277.252 23.812 277.54 23.332C277.684 23.044 277.852 22.78 278.044 22.54C278.236 22.3 278.428 22.06 278.62 21.82C278.908 21.436 279.316 21.124 279.844 20.884C280.516 20.644 281.284 20.524 282.148 20.524C283.06 20.524 283.852 20.644 284.524 20.884C285.052 21.124 285.46 21.436 285.748 21.82C286.084 22.252 286.444 22.756 286.828 23.332C287.116 23.812 287.38 24.364 287.62 24.988C287.716 25.324 287.836 25.612 287.98 25.852C288.124 26.092 288.244 26.356 288.34 26.644L288.772 27.796L303.748 64.66C303.748 64.66 303.82 64.876 303.964 65.308C304.108 65.74 304.228 66.172 304.324 66.604ZM287.26 48.964C286.636 47.572 285.988 46.132 285.316 44.644C284.692 43.156 284.02 41.644 283.3 40.108C283.108 39.676 282.916 39.244 282.724 38.812C282.532 38.332 282.34 37.876 282.148 37.444C282.004 37.876 281.836 38.332 281.644 38.812C281.452 39.244 281.26 39.676 281.068 40.108C280.348 41.644 279.652 43.156 278.98 44.644C278.356 46.132 277.732 47.572 277.108 48.964L275.812 52.132H288.556L287.26 48.964ZM347.539 50.548C347.779 51.22 347.947 51.988 348.043 52.852C348.187 53.668 348.259 54.508 348.259 55.372C348.259 56.236 348.187 57.1 348.043 57.964C347.947 58.78 347.803 59.5 347.611 60.124C346.843 62.812 345.307 65.068 343.003 66.892C340.699 68.668 338.059 69.964 335.083 70.78C332.155 71.596 329.107 71.884 325.939 71.644C322.819 71.404 320.035 70.612 317.587 69.268C316.051 68.404 314.731 67.348 313.627 66.1C312.523 64.852 311.587 63.46 310.819 61.924C310.531 61.396 310.339 60.796 310.243 60.124C310.195 59.404 310.267 58.732 310.459 58.108C310.651 57.436 310.963 56.86 311.395 56.38C311.827 55.852 312.427 55.492 313.195 55.3C313.675 55.204 314.203 55.156 314.779 55.156C315.403 55.156 316.003 55.252 316.579 55.444C317.155 55.588 317.683 55.852 318.163 56.236C318.643 56.572 319.027 57.052 319.315 57.676C319.843 58.684 320.587 59.62 321.547 60.484C322.555 61.3 323.611 61.972 324.715 62.5C326.299 63.028 327.883 63.244 329.467 63.148C331.099 63.052 332.563 62.692 333.859 62.068C335.203 61.444 336.283 60.604 337.099 59.548C337.915 58.444 338.323 57.196 338.323 55.804C338.323 54.652 338.155 53.716 337.819 52.996C337.483 52.228 337.003 51.604 336.379 51.124C335.803 50.596 335.083 50.164 334.219 49.828C333.403 49.492 332.491 49.204 331.483 48.964C330.331 48.724 329.155 48.556 327.955 48.46C326.803 48.364 325.627 48.244 324.427 48.1C323.227 47.956 322.051 47.764 320.899 47.524C319.747 47.284 318.619 46.924 317.515 46.444C315.307 45.532 313.627 44.14 312.475 42.268C311.323 40.396 310.627 38.38 310.387 36.22C310.195 34.06 310.459 31.924 311.179 29.812C311.899 27.652 313.051 25.804 314.635 24.268C316.171 22.876 317.995 21.892 320.107 21.316C322.267 20.692 324.643 20.332 327.235 20.236C328.675 20.188 330.115 20.236 331.555 20.38C333.043 20.524 334.459 20.764 335.803 21.1C337.195 21.436 338.467 21.868 339.619 22.396C340.819 22.924 341.851 23.548 342.715 24.268C343.339 24.748 343.963 25.396 344.587 26.212C345.211 26.98 345.691 27.82 346.027 28.732C346.363 29.596 346.459 30.436 346.315 31.252C346.219 32.068 345.715 32.764 344.803 33.34C344.035 33.82 343.291 34.036 342.571 33.988C341.899 33.892 341.251 33.676 340.627 33.34C340.003 32.956 339.403 32.524 338.827 32.044C338.251 31.564 337.723 31.132 337.243 30.748C335.947 29.788 334.339 29.14 332.419 28.804C330.499 28.468 328.699 28.396 327.019 28.588C325.963 28.732 324.979 28.972 324.067 29.308C323.155 29.644 322.363 30.1 321.691 30.676C321.067 31.252 320.563 31.972 320.179 32.836C319.843 33.652 319.723 34.588 319.819 35.644C319.867 36.412 320.083 37.06 320.467 37.588C320.899 38.116 321.403 38.548 321.979 38.884C322.603 39.22 323.275 39.484 323.995 39.676C324.715 39.868 325.435 40.012 326.155 40.108C328.315 40.396 330.475 40.612 332.635 40.756C334.795 40.9 336.907 41.38 338.971 42.196C341.083 43.012 342.883 44.116 344.371 45.508C345.859 46.9 346.915 48.58 347.539 50.548ZM391.344 50.548C391.584 51.22 391.752 51.988 391.848 52.852C391.992 53.668 392.064 54.508 392.064 55.372C392.064 56.236 391.992 57.1 391.848 57.964C391.752 58.78 391.608 59.5 391.416 60.124C390.648 62.812 389.112 65.068 386.808 66.892C384.504 68.668 381.864 69.964 378.888 70.78C375.96 71.596 372.912 71.884 369.744 71.644C366.624 71.404 363.84 70.612 361.392 69.268C359.856 68.404 358.536 67.348 357.432 66.1C356.328 64.852 355.392 63.46 354.624 61.924C354.336 61.396 354.144 60.796 354.048 60.124C354 59.404 354.072 58.732 354.264 58.108C354.456 57.436 354.768 56.86 355.2 56.38C355.632 55.852 356.232 55.492 357 55.3C357.48 55.204 358.008 55.156 358.584 55.156C359.208 55.156 359.808 55.252 360.384 55.444C360.96 55.588 361.488 55.852 361.968 56.236C362.448 56.572 362.832 57.052 363.12 57.676C363.648 58.684 364.392 59.62 365.352 60.484C366.36 61.3 367.416 61.972 368.52 62.5C370.104 63.028 371.688 63.244 373.272 63.148C374.904 63.052 376.368 62.692 377.664 62.068C379.008 61.444 380.088 60.604 380.904 59.548C381.72 58.444 382.128 57.196 382.128 55.804C382.128 54.652 381.96 53.716 381.624 52.996C381.288 52.228 380.808 51.604 380.184 51.124C379.608 50.596 378.888 50.164 378.024 49.828C377.208 49.492 376.296 49.204 375.288 48.964C374.136 48.724 372.96 48.556 371.76 48.46C370.608 48.364 369.432 48.244 368.232 48.1C367.032 47.956 365.856 47.764 364.704 47.524C363.552 47.284 362.424 46.924 361.32 46.444C359.112 45.532 357.432 44.14 356.28 42.268C355.128 40.396 354.432 38.38 354.192 36.22C354 34.06 354.264 31.924 354.984 29.812C355.704 27.652 356.856 25.804 358.44 24.268C359.976 22.876 361.8 21.892 363.912 21.316C366.072 20.692 368.448 20.332 371.04 20.236C372.48 20.188 373.92 20.236 375.36 20.38C376.848 20.524 378.264 20.764 379.608 21.1C381 21.436 382.272 21.868 383.424 22.396C384.624 22.924 385.656 23.548 386.52 24.268C387.144 24.748 387.768 25.396 388.392 26.212C389.016 26.98 389.496 27.82 389.832 28.732C390.168 29.596 390.264 30.436 390.12 31.252C390.024 32.068 389.52 32.764 388.608 33.34C387.84 33.82 387.096 34.036 386.376 33.988C385.704 33.892 385.056 33.676 384.432 33.34C383.808 32.956 383.208 32.524 382.632 32.044C382.056 31.564 381.528 31.132 381.048 30.748C379.752 29.788 378.144 29.14 376.224 28.804C374.304 28.468 372.504 28.396 370.824 28.588C369.768 28.732 368.784 28.972 367.872 29.308C366.96 29.644 366.168 30.1 365.496 30.676C364.872 31.252 364.368 31.972 363.984 32.836C363.648 33.652 363.528 34.588 363.624 35.644C363.672 36.412 363.888 37.06 364.272 37.588C364.704 38.116 365.208 38.548 365.784 38.884C366.408 39.22 367.08 39.484 367.8 39.676C368.52 39.868 369.24 40.012 369.96 40.108C372.12 40.396 374.28 40.612 376.44 40.756C378.6 40.9 380.712 41.38 382.776 42.196C384.888 43.012 386.688 44.116 388.176 45.508C389.664 46.9 390.72 48.58 391.344 50.548Z" fill="#717171"/>
</g>
<defs>
<clipPath id="clip0_2_52">
<rect width="395" height="91" fill="white"/>
</clipPath>
</defs>
</svg>
