<svg width="100" height="100" viewBox="0 0 100 100" fill="none" xmlns="http://www.w3.org/2000/svg">
<g clip-path="url(#clip0_62_46)">
<path d="M76.5625 0H23.4375C10.4933 0 0 10.4933 0 23.4375V76.5625C0 89.5067 10.4933 100 23.4375 100H76.5625C89.5067 100 100 89.5067 100 76.5625V23.4375C100 10.4933 89.5067 0 76.5625 0Z" fill="#5865F2"/>
<mask id="mask0_62_46" style="mask-type:luminance" maskUnits="userSpaceOnUse" x="10" y="19" width="80" height="62">
<path d="M10.9375 19.9219H89.0625V80.4414H10.9375V19.9219Z" fill="white"/>
</mask>
<g mask="url(#mask0_62_46)">
<path d="M77.0734 25.3113C72.0085 22.9863 66.6632 21.3283 61.1715 20.3789C61.1216 20.3697 61.07 20.3764 61.0242 20.3981C60.9783 20.4199 60.9405 20.4555 60.916 20.5C60.2293 21.7211 59.4684 23.3148 58.9359 24.5672C52.9309 23.668 46.957 23.668 41.0754 24.5672C40.5426 23.2867 39.7543 21.7211 39.0645 20.5C39.0389 20.4564 39.0009 20.4216 38.9552 20.4C38.9096 20.3784 38.8585 20.371 38.8086 20.3789C33.3164 21.3264 27.9709 22.9844 22.9066 25.3113C22.8633 25.3297 22.8267 25.3611 22.802 25.4012C12.6738 40.5324 9.89962 55.2918 11.2606 69.8684C11.2643 69.9041 11.2753 69.9387 11.2927 69.9701C11.3102 70.0015 11.3338 70.0291 11.3621 70.0512C18.0441 74.9586 24.5172 77.9379 30.8699 79.9125C30.9193 79.9272 30.9721 79.9265 31.0211 79.9105C31.0701 79.8944 31.113 79.8638 31.1441 79.8227C32.6469 77.7703 33.9863 75.6066 35.1352 73.3313C35.151 73.3001 35.16 73.2659 35.1617 73.231C35.1633 73.1961 35.1575 73.1612 35.1447 73.1287C35.1319 73.0962 35.1124 73.0668 35.0874 73.0424C35.0623 73.0179 35.0324 72.9991 34.9996 72.9871C32.8746 72.1809 30.8516 71.1984 28.9055 70.0824C28.87 70.0615 28.8403 70.0323 28.8188 69.9972C28.7973 69.9621 28.7848 69.9222 28.7824 69.8812C28.78 69.8401 28.7877 69.7991 28.8049 69.7617C28.822 69.7243 28.8481 69.6917 28.8809 69.6668C29.2914 69.3599 29.6949 69.0437 30.091 68.7184C30.1257 68.6897 30.1677 68.6713 30.2123 68.6652C30.2569 68.6591 30.3023 68.6656 30.3434 68.684C43.1293 74.5215 56.9711 74.5215 69.6059 68.684C69.6471 68.6644 69.693 68.657 69.7383 68.6625C69.7836 68.6681 69.8264 68.6863 69.8617 68.7152C70.2582 69.0424 70.6628 69.3597 71.075 69.6668C71.1079 69.6915 71.1342 69.7239 71.1516 69.7611C71.169 69.7983 71.177 69.8393 71.1749 69.8803C71.1728 69.9214 71.1606 69.9613 71.1395 69.9965C71.1183 70.0318 71.0888 70.0613 71.0535 70.0824C69.1063 71.2194 67.0667 72.19 64.9562 72.984C64.9235 72.9965 64.8937 73.0158 64.8689 73.0406C64.8441 73.0654 64.8248 73.0952 64.8123 73.128C64.7998 73.1608 64.7944 73.1958 64.7964 73.2308C64.7984 73.2659 64.8077 73.3001 64.8238 73.3313C65.9926 75.5886 67.3253 77.7572 68.8113 79.8195C68.8416 79.8617 68.8843 79.8934 68.9335 79.9101C68.9827 79.9268 69.0359 79.9276 69.0855 79.9125C75.4691 77.9379 81.9422 74.9586 88.6246 70.0512C88.6532 70.0301 88.6771 70.0032 88.6946 69.9722C88.7121 69.9412 88.7229 69.9069 88.7262 69.8715C90.3551 53.0195 85.9977 38.3809 77.175 25.4043C77.1534 25.3621 77.1173 25.3291 77.0734 25.3113ZM37.0445 60.993C33.1949 60.993 30.0231 57.459 30.0231 53.1187C30.0231 48.7785 33.1336 45.2445 37.0445 45.2445C40.9859 45.2445 44.127 48.8098 44.0652 53.1187C44.0652 57.459 40.9551 60.993 37.0445 60.993ZM63.0039 60.993C59.1543 60.993 55.9828 57.459 55.9828 53.1187C55.9828 48.7785 59.093 45.2445 63.0039 45.2445C66.9453 45.2445 70.0863 48.8098 70.025 53.1187C70.025 57.459 66.9453 60.993 63.0039 60.993Z" fill="white"/>
</g>
</g>
<defs>
<clipPath id="clip0_62_46">
<rect width="100" height="100" fill="white"/>
</clipPath>
</defs>
</svg>
